<?xml version="1.0" standalone="no"?><!DOCTYPE svg PUBLIC "-//W3C//DTD SVG 1.1//EN" "http://www.w3.org/Graphics/SVG/1.1/DTD/svg11.dtd"><svg t="1779608695719" class="icon" viewBox="0 0 1024 1024" version="1.1" xmlns="http://www.w3.org/2000/svg" p-id="5499" id="mx_n_1779608695719" xmlns:xlink="http://www.w3.org/1999/xlink" width="200" height="200"><path d="M512 64a32 32 0 0 1 32 32v832a32 32 0 1 1-64 0v-832A32 32 0 0 1 512 64zM288 128a32 32 0 0 1 0 64H128v640h160a32 32 0 1 1 0 64H128a64 64 0 0 1-64-64V192a64 64 0 0 1 64-64h160zM896 128a64 64 0 0 1 64 64v640a64 64 0 0 1-64 64h-160a32 32 0 1 1 0-64H896V192h-160a32 32 0 1 1 0-64H896z" fill="#333333" p-id="5500"></path></svg>