<svg version="1.0" xmlns="http://www.w3.org/2000/svg" width="800.000000" height="800.000000" viewBox="0 0 800.000000 800.000000" preserveAspectRatio="xMidYMid meet">
  <metadata>
    <rdf:RDF xmlns:rdf="http://www.w3.org/1999/02/22-rdf-syntax-ns#" xmlns:rdfs="http://www.w3.org/2000/01/rdf-schema#" xmlns:dc="http://purl.org/dc/elements/1.1/">
      <rdf:Description dc:format="image/svg+xml" dc:Label="1" dc:ContentProducer="001191330110MACRLGPT8B00000" dc:ProduceID="437708145" dc:ReservedCode1="MntgRCi7ZUWvnxHqo8RXgGHQmjBwY+eEbEOKXsiV/g0=" dc:ContentPropagator="001191330110MACRLGPT8B00000" dc:PropagateID="437708145" dc:ReservedCode2="MntgRCi7ZUWvnxHqo8RXgGHQmjBwY+eEbEOKXsiV/g0="/>
    </rdf:RDF>
  </metadata>
  <g transform="translate(192.432116,619.913578) scale(0.053745,-0.053745)" fill="#000000" stroke="none">
    <path d="M3495 7993 c-175 -39 -278 -73 -400 -133 -178 -88 -284 -186 -369 -341 -19 -36 -60 -140 -91 -232 -64 -194 -100 -275 -152 -338 -77 -93 -170 -149 -310 -186 -88 -23 -118 -26 -293 -27 -107 0 -283 3 -390 8 -223 10 -316 -1 -463 -54 -231 -84 -446 -286 -599 -564 -96 -174 -172 -376 -193 -516 -19 -121 -19 -203 0 -310 28 -161 80 -275 219 -485 152 -229 260 -466 296 -653 16 -80 2 -193 -39 -315 -49 -143 -81 -192 -207 -317 -159 -157 -247 -296 -291 -460 -27 -98 -24 -299 5 -410 51 -193 264 -552 458 -774 176 -201 364 -317 584 -361 102 -21 184 -16 380 21 369 69 602 32 793 -129 112 -94 180 -207 253 -419 92 -267 161 -400 269 -516 140 -151 295 -225 585 -279 137 -25 528 -25 695 1 269 41 412 97 529 206 130 122 193 244 267 521 76 286 157 419 319 524 196 128 431 170 690 125 278 -48 313 -52 418 -46 200 11 347 64 482 173 87 71 133 123 218 250 108 160 288 520 335 669 36 112 44 247 23 352 -32 160 -95 275 -276 502 -130 165 -157 204 -209 306 -76 151 -104 273 -90 406 17 174 85 305 289 558 218 273 300 463 300 700 0 197 -38 303 -206 575 -296 480 -488 667 -753 734 -125 31 -248 28 -536 -14 -290 -42 -378 -44 -509 -11 -271 69 -373 182 -475 531 -57 191 -120 308 -228 426 -153 164 -279 222 -609 279 -166 28 -189 30 -437 29 -144 -1 -271 -3 -282 -6z m641 -347 c284 -54 338 -77 441 -189 61 -67 102 -145 188 -357 77 -190 118 -269 183 -354 179 -232 434 -368 717 -382 110 -6 310 16 560 62 113 20 249 15 321 -13 136 -53 250 -167 420 -423 243 -366 282 -538 179 -791 -27 -67 -82 -152 -210 -324 -269 -362 -324 -502 -312 -794 7 -173 31 -261 122 -442 55 -111 119 -206 245 -369 161 -208 199 -276 214 -382 17 -114 -48 -290 -207 -568 -169 -295 -258 -387 -431 -445 -112 -37 -195 -41 -371 -16 -382 55 -574 33 -843 -95 -341 -162 -487 -329 -607 -694 -126 -383 -205 -463 -515 -521 -141 -26 -492 -38 -610 -20 -181 28 -302 69 -382 133 -93 73 -183 235 -262 471 -74 220 -143 336 -286 477 -138 136 -313 228 -520 273 -124 27 -359 27 -545 0 -71 -10 -177 -18 -235 -17 -93 0 -114 4 -182 31 -179 71 -326 220 -510 519 -117 190 -162 302 -174 438 -15 169 59 317 269 544 135 146 234 316 279 477 38 138 31 333 -17 480 -66 203 -149 362 -310 600 -105 154 -138 215 -170 316 -73 233 -26 491 134 728 141 210 278 322 456 372 92 26 212 29 483 11 470 -31 779 65 1008 311 121 130 166 209 255 446 32 84 73 175 90 202 99 154 320 269 638 330 136 26 262 20 497 -25z"/>
    <path d="M3790 5234 c-154 -24 -255 -52 -369 -105 -305 -143 -553 -462 -617 -797 -19 -97 -18 -295 2 -406 81 -464 389 -780 830 -850 303 -48 608 22 862 197 123 84 253 246 362 450 89 165 134 380 111 529 -12 77 -55 225 -85 292 -8 17 -28 62 -45 99 -87 195 -277 389 -471 479 -190 88 -430 134 -580 112z m200 -359 c306 -54 468 -177 597 -452 54 -115 73 -188 73 -273 0 -207 -165 -502 -347 -621 -157 -102 -321 -144 -533 -136 -186 7 -300 44 -421 138 -108 85 -174 182 -219 326 -60 194 -62 375 -6 541 30 87 51 124 123 214 103 130 251 211 473 258 106 23 153 24 260 5z"/>
    <path d="M3934 4801 c-47 -28 -263 -231 -413 -387 -159 -164 -247 -272 -256 -312 -13 -62 29 -103 89 -88 13 3 116 101 233 223 393 408 479 523 431 571 -17 17 -48 15 -84 -7z"/>
    <path d="M4234 4601 c-104 -74 -202 -168 -457 -444 -234 -253 -327 -359 -348 -398 -17 -32 -13 -88 7 -110 40 -45 109 -18 204 80 309 321 652 704 713 796 31 46 37 109 11 119 -35 13 -64 4 -130 -43z"/>
    <path d="M4430 4279 c-75 -45 -432 -438 -539 -592 -40 -59 -50 -107 -27 -142 19 -29 52 -33 95 -10 53 27 433 451 529 589 55 79 66 135 31 160 -31 21 -47 20 -89 -5z"/>
  </g>
</svg>